{
  "title": "Fifty Shades OF Gray 2015 ENGLiSH NEWCAM MURD3R",
  "uid": 11705750,
  "size": 1346685904,
  "categoryP": "video",
  "categoryS": "movies",
  "magnet": "?xt=urn:btih:d9d1549fc77e9ed84741f0912f7c97080511c7b3&amp;dn=Fifty+Shades+OF+Gray+2015+ENGLiSH+NEWCAM+MURD3R&amp;tr=udp%3A%2F%2Ftracker.openbittorrent.com%3A80&amp;tr=udp%3A%2F%2Fopen.demonii.com%3A1337&amp;tr=udp%3A%2F%2Ftracker.coppersurfer.tk%3A6969&amp;tr=udp%3A%2F%2Fexodus.desync.com%3A6969",
  "seeders": 39,
  "leechers": 8,
  "uploader": ".BONE.",
  "files": 6,
  "time": 1424114579,
  "description": "SOURCE..........Pioneer222 ......TY..\n\nGeneral\nComplete name : Fifty Shades OF Gray 2015 ENGLiSH NEWCAM MURD3R.mkv\nFormat : Matroska\nFormat version : Version 4 / Version 2\nFile size : 1.25 GiB\nDuration : 1h 47mn\nOverall bit rate : 1 662 Kbps\n\nVideo\nID : 1\nFormat : MPEG-4 Visual\nFormat settings, BVOP : Yes\nFormat settings, QPel : No\nFormat settings, GMC : No warppoints\nFormat settings, Matrix : Default (H.263)\nCodec ID : V_MS/VFW/FOURCC / DIVX\nCodec ID/Info : Project Mayo\nCodec ID/Hint : DivX 4\nDuration : 1h 47mn\nBit rate : 1 469 Kbps\nWidth : 640 pixels\nHeight : 480 pixels\nDisplay aspect ratio : 16:9\nOriginal display aspect rat : 4:3\nFrame rate mode : Constant\nFrame rate : 29.970 fps\nColor space : YUV\nChroma subsampling : 4:2:0\nBit depth : 8 bits\nScan type : Progressive\nCompression mode : Lossy\nBits/(Pixel*Frame) : 0.160\nStream size : 1.11 GiB (88%)\n\nAudio\nID : 2\nFormat : AC-3\nFormat/Info : Audio Coding 3\nMode extension : CM (complete main)\nFormat settings, Endianness : Big\nCodec ID : A_AC3\nDuration : 1h 47mn\nBit rate mode : Constant\nBit rate : 160 Kbps\nChannel(s) : 2 channels\nChannel positions : Front: L R\nSampling rate : 44.1 KHz\nBit depth : 16 bits\nCompression mode : Lossy\nStream size : 123 MiB (10%)\nDefault : Yes\nForced : No\n &lt;a href=&quot;\nhttp://s20.postimage.org/j1j4akzjx/vlcsnap_2015_02_16_16h40m36s161.png&quot; rel=&quot;nofollow&quot; target=&quot;_NEW&quot;&gt;\nhttp://s20.postimage.org/j1j4akzjx/vlcsnap_2015_02_16_16h40m36s161.png&lt;/a&gt;\n &lt;a href=&quot;\nhttp://s20.postimage.org/8fz8ykt8d/vlcsnap_2015_02_16_16h40m22s21.png&quot; rel=&quot;nofollow&quot; target=&quot;_NEW&quot;&gt;\nhttp://s20.postimage.org/8fz8ykt8d/vlcsnap_2015_02_16_16h40m22s21.png&lt;/a&gt;\n &lt;a href=&quot;\nhttp://s20.postimage.org/i1stevke5/vlcsnap_2015_02_16_16h40m39s200.png&quot; rel=&quot;nofollow&quot; target=&quot;_NEW&quot;&gt;\nhttp://s20.postimage.org/i1stevke5/vlcsnap_2015_02_16_16h40m39s200.png&lt;/a&gt;",
  "parsed": {
    "xt": "urn:btih:d9d1549fc77e9ed84741f0912f7c97080511c7b3",
    "dn": "Fifty Shades OF Gray 2015 ENGLiSH NEWCAM MURD3R",
    "tr": [
      "udp://exodus.desync.com:6969",
      "udp://open.demonii.com:1337",
      "udp://tracker.coppersurfer.tk:6969",
      "udp://tracker.openbittorrent.com:80"
    ],
    "infoHash": "d9d1549fc77e9ed84741f0912f7c97080511c7b3",
    "infoHashBuffer": {
      "type": "Buffer",
      "data": [
        217,
        209,
        84,
        159,
        199,
        126,
        158,
        216,
        71,
        65,
        240,
        145,
        47,
        124,
        151,
        8,
        5,
        17,
        199,
        179
      ]
    },
    "name": "Fifty Shades OF Gray 2015 ENGLiSH NEWCAM MURD3R",
    "announce": [
      "udp://exodus.desync.com:6969",
      "udp://open.demonii.com:1337",
      "udp://tracker.coppersurfer.tk:6969",
      "udp://tracker.openbittorrent.com:80"
    ],
    "urlList": []
  },
  "previous": 16,
  "peers": 46,
  "last_updated": "2016-12-27T14:40:41.066Z"
}